<?xml version="1.0" encoding="iso-8859-1"?>
<!-- Uploaded to: SVG Repo, www.svgrepo.com, Generator: SVG Repo Mixer Tools -->
<svg height="800px" width="800px" version="1.1" id="Layer_1" xmlns="http://www.w3.org/2000/svg" xmlns:xlink="http://www.w3.org/1999/xlink" 
	 viewBox="0 0 511.994 511.994" xml:space="preserve">
<circle style="fill:#EAEAED;" cx="255.997" cy="255.997" r="255.997"/>
<path style="fill:#D9D9DD;" d="M509.348,292.863c-16.447,114.006-108.011,203.71-222.909,217.327l-68.923-68.923l4.836-40.219
	l-28.486-22.023l5.9-29.511l35.339,10.056l-26.458-39.501l-56.137-41.98l45.936,18.335l1.527-4.095l-33.155-25.478l45.033,13.154
	l4.953-15.655l-0.24-61.591l-6.585-21.221l0.819-13.962l17.227,14.948l5.449-5.822l62.928-96.785L509.348,292.863z"/>
<path style="fill:#9EA7DB;" d="M294.735,290.629c0,0-13.939-11.577-33.668-3.204c-19.723,8.379-28.286,32.386-28.286,32.386
	l16.196,35.06l26.503-35.038L294.735,290.629z"/>
<path style="fill:#8C95C9;" d="M258.632,297.42c0,0-24.909-15.176-43.15-5.092c-18.241,10.079-24.525,5.209-24.525,5.209
	s45.741,52.549,48.493,53.513c2.758,0.964,29.979-15.583,29.979-15.583L258.632,297.42z"/>
<path style="fill:#CC9E72;" d="M258.794,172.906c0,0,4.407,6,2.702,10.129c-1.705,4.128-3.984,7.666-4.931,9.304
	c-0.947,1.632-5.443-2.056-5.309-6.112c0.134-4.056-2.073-7.304-4.641-8.257c-2.568-0.947-4.646-6.959-4.646-6.959L258.794,172.906z
	"/>
<g>
	<path style="fill:#FF8C8A;" d="M255.223,181.765c0,0-0.813,6.128,9.962,8.613c10.781,2.479,16.669,21.817,16.435,25.595
		c-0.234,3.772,1.075-17.054-3.733-21.934c-4.808-4.88-5.744-5.532-10.017-7.198c-4.268-1.666,0.852-3.961-2.858-5.694
		c-3.705-1.733-11.605-7.248-12.647-7.649c-1.036-0.407-5.699,3.95-2.557,6.446C252.95,182.439,255.223,181.765,255.223,181.765z"/>
	<path style="fill:#FF8C8A;" d="M250.989,178.623c0,0,2.947,6.624-2.412,11.672c-5.354,5.042-9.51,0.334-13.522,4.195
		c-4.006,3.861-16.458-0.306-18.853-4.011c-2.39-3.711-3.371-7.711-3.371-7.711s-0.318,5.783,6.608,6.853
		c6.92,1.064,11.828,2.474,13.895,1.287c2.067-1.181,3.978-2.312,2.256-6.296c-1.716-3.978-1.226-5.315,2.858-8.034
		C242.531,173.865,250.989,178.623,250.989,178.623z"/>
	<path style="fill:#FF8C8A;" d="M237.629,183.848c0,0-7.371,6.106-13.444,3.655c-6.073-2.457-5.465-5.382-12.19-7.666
		c-6.713-2.284-7.449,1.315-7.449,1.315l2.892-3.594c0,0,6.702,0.546,7.443,0.847c0.747,0.301,7.588,3.354,9.622,4.034
		c2.034,0.68,3.003,1.192,5.309-1.688c2.301-2.88,2.028-5.571,3.967-3.789c1.939,1.777,6.173-2.607,6.613-1.12
		C240.838,177.324,237.629,183.848,237.629,183.848z"/>
	<path style="fill:#FF8C8A;" d="M271.129,173.742c0.719,0,7.532-2.58,10.012-1.577c2.479,0.997,6.78,6.056,8.909,8.641
		c2.123,2.591,4.134,2.97,4.123,5.85c-0.011,2.88-2.663,8.73-2.663,8.73s4.479-10.012-3.014-11.455
		c-7.488-1.443-8.786-6.44-13.633-4.791c-4.847,1.644-9.326,2.646-14.63-0.73c-0.68-0.435-1.298-0.875-1.85-1.315
		c-3.761-2.964-4.719-5.8-4.719-5.8l8-2.68L271.129,173.742z"/>
</g>
<path style="fill:#FA7876;" d="M212.92,94.122c0,0-11.678-10.424-19.656-5.694c-7.973,4.724-7.661,24.235-3.833,27.467
	c3.833,3.231,8.441,3.343,8.441,3.343s-0.953,8.619,5.17,15.566c6.128,6.942,20.536,26.442,27.534,32.074
	c7.003,5.633,7.003,5.633,7.003,5.633s-3.772-11.02-10.29-22.252c-6.518-11.226-10.574-13.059-15.856-18.536
	c-5.282-5.482,4.496-27.539,4.496-27.539L212.92,94.122z"/>
<path style="fill:#FF8C8A;" d="M288.601,100.969c0,0-0.301,22.881,4.206,39.295s-18.424,41.328-31.523,39.094
	c-13.098-2.24-13.098-2.24-13.098-2.24s-15.332,2.346-20.698-2.741c-5.371-5.081-29.138-26.804-19.711-54.504
	s7.588-28.804,7.588-28.804l2.251-14.173l35.033-5.816l27.807,7.037L288.601,100.969z"/>
<path style="fill:#FA7876;" d="M291.436,134.403c0.401,2.006,0.852,3.978,1.371,5.861c4.507,16.413-18.424,41.328-31.523,39.094
	c-13.098-2.24-13.098-2.24-13.098-2.24s-15.332,2.346-20.698-2.741c-4.646-4.401-23.076-21.266-21.834-43.679
	c1.053,0.758,1.872,1.426,2.307,1.928c2.262,2.646,8.429,18.592,10.335,20.92c1.9,2.329,15.839,12.948,21.088,14.446
	c5.248,1.499,9.733,1.008,25.45-2.217c8.184-1.677,17.048-9.8,23.667-17.199C291.169,145.596,291.693,139.879,291.436,134.403z"/>
<g>
	<path style="fill:#FFB1B0;" d="M288.372,107.594c0,0,9.962-10.385,13.037-7.449c3.075,2.931,1.086,15.611-3.861,19.968
		c-4.947,4.368-16.814,20.397-23.394,20.196c-6.58-0.201-5.393-4.786-11.009-1.137c-5.61,3.649-20.079,9.321-23.879,16.708
		s-3.059,14.218,1.393,17.193c4.451,2.975,10.613,4.646,10.613,4.646s-19.165-2.596-16.97-13.282
		c2.19-10.691,6.608-23.004,22.631-29.456c16.018-6.457,30.525-23.26,30.982-25.322S288.372,107.594,288.372,107.594z"/>
	<path style="fill:#FFB1B0;" d="M266.092,74.55c0,0,12.263-5.126,17.656-1.894c5.387,3.231,14.24,4.323,14.129,12.051
		c-0.106,7.727-4.273,15.984-11.354,20.781s-9.332,2.045-11.666,5.945s-2.29,7.198-19.115,10.836
		c-16.825,3.633-26.503-4.658-26.503-4.658s-17.929-7.31-16.062-14.758c0,0,2.663,6.424,9.087,8.324
		c6.418,1.894,9.65,3.131,13.148,5.226c3.499,2.095,18.335,2.958,23.216,1.053c4.88-1.911,18.246-12.764,20.603-14.625
		C281.592,100.975,292.729,94.089,266.092,74.55z"/>
	<path style="fill:#FFB1B0;" d="M270.488,74.762c0.351,1.114-1.164-6.385-4.535-6.218c-3.371,0.162-10.502-2.24-14.653-3.638
		c-4.151-1.393-6.14,5.048-6.14,5.048s-10.758-6.752-14.998-3.839c-4.24,2.914-7.627,10.391-15.31,5.009
		c-7.688-5.382-10.931,9.661-7.103,13.666c3.833,4.011-0.635,5.231,3.677,11.555c4.318,6.323,12.051,13.449,20.074,15.923
		c8.028,2.468,15.594,1.543,15.594,1.543s-23.645-9.176-28.787-16.463c-5.142-7.287,5.85-14.407,10.625-17.477
		c13.382-8.597,18.508,7.449,36.581-2.396L270.488,74.762z"/>
	<path style="fill:#FFB1B0;" d="M267.747,98.15c0,0-10.792-7.571-15.761-2.134c-4.97,5.443-5.839,4.296-5.839,4.296
		s6.206-6.468-0.947-8.574c-3.064-0.903-7.928,1.917-10.981,2.502c-4.073,0.791-7.532,1.983-8.803,1.137
		c-2.229-1.493,0.451-5.967,0.451-5.967s-5.822,4.775-4.167,6.702c1.649,1.922,9.36,7.009,13.304,9.527
		c3.945,2.518,15.293,1.527,19.422,0.88c4.128-0.646,7.588,1.12,11.694-1.571c4.1-2.68,6.14-5.048,6.435-7.365
		C272.85,95.27,267.747,98.15,267.747,98.15z"/>
	<path style="fill:#FFB1B0;" d="M238.141,155.05c0,0-0.44-14.608-9.967-25.767c-9.521-11.154-16.441-9.193-16.591-21.065
		c-0.156-11.873-13.6-6.836-15.36-1.816c-1.766,5.025,4.624,22.803,14.619,24.542c0,0,3.967-0.942,12.179,4.607
		c8.212,5.538,12.001,12.485,12.095,16.747c0.095,4.268,3.516,8.964,3.516,8.964L238.141,155.05z"/>
	<path style="fill:#FFB1B0;" d="M260.599,82.316c0.958-0.045,5.12-3.477,8.156-1.655c3.042,1.822,1.46,3.287,4.385,6.986
		c2.925,3.705,4.663,1.32,5.471,4.529c0.808,3.204-2.468,6.078-3.159,7.22c-0.685,1.148-1.956,2.1-1.956,2.1
		s-2.808-0.123-1.092-2.212s-2.986,0.245-3.426-0.652c-0.446-0.897-7.51-2.162-8.084-2.112c-0.574,0.045,7.376,1.811,9.455,0.446
		c2.078-1.371-3.192-2.19-7.198-5.254c-4.011-3.059-5.187-2.791-1.66-3.605c3.521-0.808-0.596-3.549-4.184-2.58
		c-3.577,0.969-5.56-3.722-3.192-4.875C256.476,79.497,260.599,82.316,260.599,82.316z"/>
	<path style="fill:#FFB1B0;" d="M250.002,87.776c0,0,2.201-3.672-0.763-5.755c-2.958-2.084-2.541,1.125-8.045-1.393
		c-5.504-2.518-7.432-3.984-10.825-3.521c-3.393,0.457-2.836,7.337-2.836,7.337s-6.758,3.699-2.524,6.803
		c4.229,3.103,9.505,2.936,9.505,2.936s-5.393-2.24-3.978-5.911c1.421-3.672,1.666-4.05,6.591-1.616
		c4.919,2.435,4.736-0.641,6.457,0.39C245.306,88.077,250.002,87.776,250.002,87.776z"/>
</g>
<g>
	<path style="fill:#FAD55C;" d="M252.783,190.59l10.524,154.376c2.134-0.05,4.268-0.022,6.407,0.078l-12.508-158.571L252.783,190.59
		z"/>
	<path style="fill:#FAD55C;" d="M285.436,246.359c0,0-4.295,1.164-10.742,6.179c-10.402,8.095-26.397,26.208-38.927,65.575
		c-4.234,13.299-7.471,26.369-9.705,38.509c1.939-0.997,3.906-1.933,5.894-2.802c0.78-4.429,1.738-9.187,2.925-14.324
		c9.828-42.621,27.639-67.274,29.823-70.695c2.19-3.415,16.051-18.046,21.55-18.892L285.436,246.359z"/>
	<path style="fill:#FAD55C;" d="M280.132,244.13c0,0-7.382,0.964-9.187,5.048c-1.805,4.089-2.791,8.179-3.315,9.989
		c-0.529,1.822,5.248,2.518,8.084-0.379c2.841-2.897,6.708-3.549,9.176-2.351c2.463,1.198,8.24-1.454,8.24-1.454L280.132,244.13z"/>
</g>
<g>
	<path style="fill:#FF8C8A;" d="M276.199,252.838c0,0-3.866,4.819-13.109-1.254c-9.243-6.078-27.288,3.031-29.857,5.805
		c-2.563,2.78,11.577-12.558,18.43-12.458c6.853,0.106,7.967,0.329,12.123,2.268c4.156,1.939,2.279-3.354,6.095-1.872
		c3.816,1.482,13.26,3.382,14.268,3.855c1.014,0.474,1.081,6.853-2.892,6.307C277.285,254.944,276.199,252.838,276.199,252.838z"/>
	<path style="fill:#FF8C8A;" d="M281.397,253.724c0,0-6.825,2.451-6.769,9.806c0.05,7.36,6.329,7.109,6.307,12.675
		c-0.017,5.566,18.062,14.719,15.934,10.853l-1.616-2.925c-3.382-6.14-9.967-6.842-10.535-9.154
		c-0.574-2.312-1.075-4.479,2.992-5.984c4.062-1.51,4.691-2.791,3.833-7.616C290.679,256.549,281.397,253.724,281.397,253.724z"/>
</g>
<path style="fill:#FAD55C;" d="M286.851,266.995c0,0,0.68,9.544,6.652,12.24c5.967,2.691,7.666,0.228,13.962,3.51
	c6.29,3.276,4.195,6.296,4.195,6.296l0.596-4.569c0,0-5.02-4.468-5.755-4.802c-0.73-0.329-7.666-3.165-9.56-4.162
	c-1.894-1.003-2.936-1.348-2.446-5.003c0.485-3.655,2.624-5.321-0.006-5.493c-2.63-0.167-2.379-6.257-3.761-5.549
	C289.347,260.165,286.851,266.995,286.851,266.995z"/>
<path style="fill:#FF8C8A;" d="M271.006,235.79c-0.501-0.518-3.343-7.226-5.777-8.324s-9.065-0.719-12.402-0.462
	c-3.343,0.251-5.003-0.936-7.081,1.059c-2.073,2-4.468,7.956-4.468,7.956s4.145-10.157,10.363-5.738
	c6.218,4.418,10.725,1.905,12.886,6.546c2.156,4.641,4.53,8.574,10.636,10.067c0.786,0.195,1.527,0.334,2.229,0.435
	c4.736,0.669,7.454-0.602,7.454-0.602l-3.594-7.633L271.006,235.79z"/>
<path style="fill:#FA7876;" d="M368.783,222.848c0,0,15.605,1.237,17.7,10.268c2.089,9.037-12.229,22.291-17.21,21.756
	c-4.986-0.535-8.246-3.794-8.246-3.794s-5.571,6.652-14.825,7.02c-9.248,0.373-33.305,3.432-42.214,2.268
	c-8.909-1.17-8.909-1.17-8.909-1.17s10.574-4.892,23.193-7.939c12.625-3.048,16.747-1.382,24.358-1.348
	c7.61,0.028,16.798-22.28,16.798-22.28L368.783,222.848z"/>
<path style="fill:#FF8C8A;" d="M311.532,172.873c0,0-16.33,16.029-31.305,24.118c-14.976,8.084-17.143,41.874-6.474,49.797
	s10.669,7.922,10.669,7.922s8.897,12.703,16.279,13.07c7.388,0.362,39.512,2.535,53.022-23.422
	c13.51-25.957,15.572-25.389,15.572-25.389l8.691-11.421L357.98,178.21l-24.302-15.243L311.532,172.873z"/>
<path style="fill:#FA7876;" d="M285.408,193.927c-1.727,1.098-3.465,2.134-5.181,3.064c-14.976,8.084-17.143,41.874-6.474,49.797
	s10.669,7.922,10.669,7.922s8.897,12.703,16.279,13.07c6.396,0.318,31.316,1.978,46.665-14.407c-1.276-0.24-2.329-0.368-2.992-0.334
	c-3.477,0.195-19.26,6.758-22.263,6.992c-2.997,0.228-20.302-2.507-25.015-5.265c-4.708-2.758-7.454-6.34-15.984-19.929
	c-4.44-7.07-4.697-19.093-3.922-28.988C277.503,201.855,281.269,197.532,285.408,193.927z"/>
<g>
	<path style="fill:#FFB1B0;" d="M306.435,177.603c0,0,1.092-14.363-3.153-14.558c-4.245-0.195-12.04,10.006-11.772,16.597
		c0.267,6.591-3.12,26.247,1.571,30.86c4.697,4.619,7.187,0.591,8.429,7.17c1.242,6.58,7.137,20.954,4.424,28.809
		c-2.708,7.85-8.156,12.034-13.388,10.875c-5.226-1.159-10.697-4.463-10.697-4.463s15.126,12.056,21.338,3.087
		c6.206-8.97,12.056-20.67,5.649-36.71c-6.407-16.04-4.747-38.158-3.571-39.913C306.435,177.603,306.435,177.603,306.435,177.603z"
		/>
	<path style="fill:#FFB1B0;" d="M346.186,170.884c0,0-4.775-12.402-10.831-14.068c-6.062-1.66-12.97-7.304-18.48-1.883
		c-5.504,5.415-8.597,14.134-7.17,22.564c1.426,8.435,4.97,8.162,3.766,12.541c-1.209,4.385-3.627,6.635,5.371,21.305
		c9.003,14.675,21.689,15.94,21.689,15.94s17.667,7.911,21.762,1.41c0,0-6.479,2.518-12.29-0.813
		c-5.811-3.332-8.936-4.814-12.87-5.894c-3.928-1.081-14.803-11.21-16.803-16.051c-1.995-4.847-3.382-22.007-3.666-24.999
		C316.379,177.943,313.655,165.134,346.186,170.884z"/>
	<path style="fill:#FFB1B0;" d="M342.994,167.859c-1.047,0.513,5.421-3.571,7.627-1.02c2.212,2.546,8.881,6.045,12.753,8.078
		c3.878,2.034,0.596,7.928,0.596,7.928s12.318,3.103,13.143,8.184c0.819,5.081-2.24,12.697,6.959,14.53
		c9.204,1.833,0.574,14.575-4.975,14.575c-5.543,0-3.337,4.078-10.892,5.326c-7.555,1.254-18.046,0.591-25.377-3.51
		c-7.332-4.089-11.895-10.196-11.895-10.196s22.976,10.747,31.796,9.427c8.819-1.32,6.374-14.185,5.287-19.756
		c-3.031-15.611-18.168-8.234-23.539-28.102L342.994,167.859z"/>
	<path style="fill:#FFB1B0;" d="M327.984,185.999c0,0,12.926,2.568,12.43,9.923c-0.496,7.349,0.936,7.187,0.936,7.187
		s0.379-8.959,6.847-5.243c2.769,1.593,4.095,7.059,5.783,9.672c2.24,3.482,3.766,6.814,5.259,7.142c2.619,0.579,4-4.446,4-4.446
		s0.568,7.505-1.961,7.638c-2.535,0.139-11.538-1.922-16.084-3.031c-4.546-1.114-11.672-10.001-14.056-13.427
		c-2.385-3.432-6.05-4.719-6.947-9.538c-0.891-4.819-0.591-7.928,0.88-9.744C326.536,180.322,327.984,185.999,327.984,185.999z"/>
	<path style="fill:#FFB1B0;" d="M307.309,246.721c0,0,10.87-9.772,25.517-10.602c14.641-0.825,18.007,5.532,26.692-2.563
		c8.686-8.095,14.341,5.103,11.928,9.85c-2.412,4.741-19.678,12.413-27.846,6.39c0,0-2.061-3.516-11.744-5.621
		c-9.677-2.106-17.316-0.045-20.464,2.83c-3.148,2.88-8.909,3.655-8.909,3.655L307.309,246.721z"/>
	<path style="fill:#FFB1B0;" d="M344.37,180.227c-0.635-0.73-1.031-6.101-4.446-7.042c-3.415-0.936-3.382,1.22-8.078,1.66
		c-4.697,0.446-4.173-2.463-7.053-0.83c-2.875,1.638-2.685,5.989-3.042,7.276c-0.351,1.293-0.162,2.869-0.162,2.869
		s2.034,1.944,2.351-0.741c0.323-2.685,1.889,2.329,2.841,2.028c0.953-0.301,6.752,3.933,7.115,4.379
		c0.368,0.451-6.407-4.073-6.858-6.524c-0.451-2.446,3.789,0.797,8.775,1.577c4.981,0.78,5.599,1.816,3.75-1.293
		c-1.85-3.109,2.981-2.022,4.758,1.237c1.772,3.259,6.535,1.454,5.727-1.059C349.25,181.258,344.37,180.227,344.37,180.227z"/>
	<path style="fill:#FFB1B0;" d="M347.74,191.659c0,0,1.131-4.128,4.685-3.426c3.555,0.696,0.942,2.613,6.569,4.853
		c5.621,2.24,8.017,2.619,10.028,5.387c2.011,2.775-3.343,7.126-3.343,7.126s1.995,7.438-3.17,6.524
		c-5.165-0.914-8.697-4.841-8.697-4.841s5.348,2.351,7.02-1.209c1.671-3.566,1.777-4.006-3.382-5.878
		c-5.159-1.883-2.814-3.872-4.747-4.401C350.771,195.264,347.74,191.659,347.74,191.659z"/>
</g>
<g>
	<path style="fill:#FAD55C;" d="M219.249,265.73c0,0,3.855,2.223,8.803,8.714c7.911,10.363,18.614,31.601,20.859,71.987
		c-1.61,0.29-3.209,0.618-4.808,0.992c-1.85-31.545-9.505-51.513-10.535-54.705c-1.242-3.866-10.92-21.544-16.023-23.767
		L219.249,265.73z"/>
	<path style="fill:#FAD55C;" d="M224.943,264.928c0,0,6.886,2.814,7.594,7.22c0.702,4.413,0.618,8.619,0.663,10.508
		c0.045,1.894-5.716,1.098-7.722-2.429c-2.006-3.527-5.582-5.142-8.273-4.613c-2.685,0.535-7.599-3.504-7.599-3.504L224.943,264.928
		z"/>
</g>
<g>
	<path style="fill:#FF8C8A;" d="M226.525,274.349c0,0,2.513,5.649,12.998,2.128c10.485-3.516,25.611,9.889,27.389,13.226
		c1.772,3.343-7.995-15.098-14.647-16.742c-6.652-1.649-7.789-1.716-12.302-0.903c-4.513,0.819-1.348-3.822-5.415-3.359
		c-4.067,0.462-13.683-0.106-14.781,0.089c-1.098,0.201-2.791,6.351,1.187,6.836C224.937,276.11,226.525,274.349,226.525,274.349z"
		/>
	<path style="fill:#FF8C8A;" d="M221.271,273.881c0,0,5.978,4.112,4.05,11.21c-1.928,7.103-7.934,5.259-9.332,10.647
		c-1.404,5.387-14.19,8.346-18.174,6.435c-3.978-1.911-6.903-4.808-6.903-4.808s2.752,5.098,9.209,2.39
		c6.463-2.713,11.382-4.078,12.524-6.167c1.142-2.089,2.178-4.05-1.371-6.546c-3.543-2.496-3.828-3.894-1.761-8.346
		C211.571,274.249,221.271,273.881,221.271,273.881z"/>
	<path style="fill:#FF8C8A;" d="M212.619,285.325c0,0-3.092,9.059-9.555,10.14c-6.457,1.086-7.471-1.733-14.396-0.162
		c-6.847,1.549-6.173,8.998-5.075,0.446c0,0,6-3.042,6.791-3.176c0.791-0.134,8.218-1.103,10.307-1.588
		c2.084-0.485,3.181-0.552,3.644-4.217c0.457-3.655-1.187-5.811,1.398-5.304c2.585,0.501,3.9-5.449,5.053-4.413
		C211.939,278.088,212.619,285.325,212.619,285.325z"/>
	<path style="fill:#FF8C8A;" d="M235.89,259.19c0.613-0.373,5.075-6.134,7.711-6.574c2.635-0.446,8.942,1.616,12.112,2.713
		c3.165,1.092,5.075,0.368,6.574,2.825c1.493,2.463,2.295,8.836,2.295,8.836s-1.421-10.881-8.563-8.19
		c-7.137,2.685-10.859-0.891-14.129,3.048c-3.27,3.933-6.563,7.131-12.847,7.02c-0.813-0.011-1.566-0.067-2.268-0.15
		c-4.752-0.557-7.053-2.479-7.053-2.479l5.421-6.468L235.89,259.19z"/>
</g>
<path style="fill:#FA7876;" d="M144.643,221.75c0,0-15.405-2.78-19.734,5.421c-4.323,8.201,6.14,24.67,11.098,25.422
	c4.953,0.752,8.942-1.566,8.942-1.566s3.688,7.85,12.541,10.569c8.853,2.713,31.333,11.806,40.242,12.948
	c8.914,1.142,8.914,1.142,8.914,1.142s-8.975-7.427-20.408-13.589c-11.427-6.167-15.839-5.605-23.205-7.516
	c-7.365-1.905-10.563-25.823-10.563-25.823L144.643,221.75z"/>
<path style="fill:#FF8C8A;" d="M212.741,188.021c0,0,11.7,19.661,24.124,31.3c12.419,11.633,5.9,44.86-6.429,49.802
	c-12.34,4.942-12.34,4.942-12.34,4.942s-11.839,10.017-19.076,8.491c-7.232-1.532-38.849-7.616-45.295-36.164
	c-6.452-28.542-8.591-28.52-8.591-28.52l-5.493-13.26l26.82-23.271l27.389-8.541L212.741,188.021z"/>
<path style="fill:#FA7876;" d="M232.631,215.042c1.393,1.499,2.808,2.942,4.234,4.279c12.419,11.633,5.9,44.86-6.429,49.802
	c-12.34,4.942-12.34,4.942-12.34,4.942s-11.839,10.017-19.076,8.491c-6.262-1.326-30.787-6.067-41.451-25.823
	c1.298,0.089,2.346,0.234,2.975,0.44c3.315,1.07,16.909,11.438,19.75,12.43c2.836,0.986,20.269,2.752,25.528,1.287
	c5.259-1.471,8.825-4.234,20.536-15.193c6.095-5.711,9.416-17.271,11.187-27.032C238.258,224.72,235.718,219.577,232.631,215.042z"
	/>
<g>
	<path style="fill:#FFB1B0;" d="M216.647,194.284c0,0,2.424-14.552,6.574-13.661c4.156,0.891,9.092,12.742,7.154,19.043
		c-1.939,6.307-3.672,26.18-9.388,29.445c-5.716,3.27-7.098-1.259-9.978,4.786c-2.875,6.045-12.24,18.447-11.616,26.731
		c0.618,8.279,4.825,13.717,10.173,13.928s11.483-1.593,11.483-1.593s-17.7,7.811-21.416-2.446
		c-3.716-10.257-6.39-23.065,3.889-36.944c10.285-13.878,14.502-35.294,13.817-37.294
		C216.647,194.284,216.647,194.284,216.647,194.284z"/>
	<path style="fill:#FFB1B0;" d="M179.737,177.269c0,0,7.778-10.781,14.062-10.842c6.284-0.067,14.396-3.761,18.346,2.88
		c3.945,6.647,4.708,15.862,1.181,23.65c-3.527,7.794-6.881,6.624-6.836,11.171c0.05,4.546,1.816,7.337-10.625,19.232
		c-12.446,11.895-25.038,9.884-25.038,9.884s-19.099,3.142-21.399-4.184c0,0,5.621,4.084,12.09,2.346
		c6.468-1.738,9.867-2.379,13.945-2.418c4.078-0.045,17.176-7.064,20.341-11.243s8.881-20.413,9.917-23.232
		C206.763,191.693,212.658,179.999,179.737,177.269z"/>
	<path style="fill:#FFB1B0;" d="M183.598,175.157c0.88,0.763-4.335-4.836-7.12-2.936c-2.786,1.9-10.123,3.582-14.391,4.563
		c-4.268,0.981-2.596,7.516-2.596,7.516s-12.703-0.134-14.792,4.563c-2.089,4.702-1.07,12.847-10.435,12.274
		c-9.365-0.568-4.268,13.951,1.098,15.366c5.365,1.415,2.19,4.791,9.17,7.928c6.986,3.137,17.305,5.165,25.439,3.075
		c8.134-2.089,14.101-6.83,14.101-6.83s-24.954,4.535-33.144,1.014c-8.195-3.527-2.552-15.343-0.084-20.452
		c6.908-14.324,19.667-3.332,29.929-21.171L183.598,175.157z"/>
	<path style="fill:#FFB1B0;" d="M193.487,196.523c0,0-13.159-0.813-14.547,6.424c-1.398,7.232-2.741,6.713-2.741,6.713
		s1.917-8.758-5.282-6.814c-3.087,0.836-5.761,5.777-8.056,7.878c-3.059,2.791-5.382,5.621-6.914,5.566
		c-2.674-0.106-2.73-5.321-2.73-5.321s-2.463,7.109-0.05,7.889c2.412,0.774,11.644,1.081,16.324,1.164
		c4.68,0.084,13.834-6.697,17.015-9.404c3.181-2.702,7.053-3.014,9.148-7.449c2.089-4.429,2.596-7.51,1.632-9.644
		C196.334,191.398,193.487,196.523,193.487,196.523z"/>
	<path style="fill:#FFB1B0;" d="M198,260.504c0,0-8.017-12.218-21.968-16.753c-13.951-4.529-18.826,0.758-25.16-9.282
		c-6.34-10.04-15.165,1.281-14.04,6.485c1.12,5.198,15.862,17.02,25.294,13.276c0,0,2.886-2.875,12.786-2.446
		c9.9,0.435,16.759,4.374,19.071,7.956c2.307,3.588,7.677,5.8,7.677,5.8L198,260.504z"/>
	<path style="fill:#FFB1B0;" d="M179.113,186.762c0.797-0.54,2.552-5.638,6.095-5.677c3.538-0.039,2.958,2.045,7.388,3.666
		c4.429,1.627,4.663-1.315,7.031,0.997c2.362,2.312,1.07,6.474,1.086,7.811c0.011,1.337-0.574,2.814-0.574,2.814
		s-2.457,1.359-2.089-1.315c0.373-2.68-2.412,1.772-3.259,1.237s-7.532,2.084-8,2.424c-0.462,0.34,7.237-2.312,8.296-4.563
		c1.059-2.256-3.867-0.195-8.881-0.713c-5.02-0.513-5.883,0.329-3.304-2.201c2.585-2.541-2.362-2.719-4.908-0.017
		c-2.546,2.697-6.691-0.267-5.276-2.485C174.132,186.517,179.113,186.762,179.113,186.762z"/>
	<path style="fill:#FFB1B0;" d="M172.94,196.958c0,0-0.045-4.279-3.66-4.507c-3.61-0.234-1.577,2.29-7.588,3.02
		c-6.006,0.73-8.418,0.49-11.07,2.652c-2.646,2.167,1.421,7.744,1.421,7.744s-3.833,6.68,1.398,7.115
		c5.231,0.435,9.644-2.463,9.644-2.463s-5.772,0.908-6.479-2.964c-0.713-3.867-0.696-4.323,4.769-4.819
		c5.471-0.501,3.705-3.02,5.711-3.042C169.09,199.671,172.94,196.958,172.94,196.958z"/>
</g>
<g>
	<path style="fill:#FAD55C;" d="M253.975,397.409c0,0,5.621-57.975-26.676-87.52c-37.579-34.381-80.188-37.495-74.79-31.801
		c4.613,4.864,42.442,14.92,62.148,39.317c23.193,28.715,16.87,88.84,16.87,88.84L253.975,397.409z"/>
	<path style="fill:#FAD55C;" d="M246.576,400.607c0,0-11.705-57.062,17.288-89.849c33.746-38.152,75.787-45.746,71.018-39.512
		c-4.073,5.326-40.626,19.316-57.652,45.657c-20.029,30.999-7.399,90.122-7.399,90.122L246.576,400.607z"/>
	<path style="fill:#FAD55C;" d="M244.231,263l-1.482,138.827l11.449-7.844C254.198,393.982,262.471,305.259,244.231,263z"/>
</g>
<path style="fill:#9EA7DB;" d="M311.387,285.893c0,0-26.13,6.964-45.535,29.116c-19.399,22.146-38.342,96.195-37.239,115.282
	c1.098,19.087,6.34,10.017,6.34,10.017l31.807,4.368c32.425,7.622,18.463-23.678,12.229-40.359
	C254.103,337.768,276.672,348.983,311.387,285.893z"/>
<path style="fill:#8C95C9;" d="M182.277,294.478c9.533-8.541,90.049,39.724,100.434,130.648
	c3.148,27.595-10.463,22.062-29.177,21.015l-19.767,0.847c-47.847,2.056,21.427-62.833-21.862-120.385L182.277,294.478z"/>
<g>
	<path style="fill:#FA7876;" d="M228.085,369.251h39.005c1.588,0,2.886,1.298,2.886,2.886l0,0c0,1.588-1.298,2.886-2.886,2.886
		h-39.005c-1.588,0-2.886-1.298-2.886-2.886l0,0C225.199,370.549,226.497,369.251,228.085,369.251z"/>
	<path style="fill:#FA7876;" d="M228.085,363.775h39.005c1.588,0,2.886,1.298,2.886,2.886v0.006c0,1.582-1.298,2.886-2.886,2.886
		h-39.005c-1.588,0-2.886-1.304-2.886-2.886v-0.006C225.199,365.073,226.497,363.775,228.085,363.775z"/>
	<path style="fill:#FA7876;" d="M251.73,365.491c0,0-48.047-27.99-56.627-14.887c-8.574,13.104-7.115,34.136,10.519,32.035
		c17.633-2.106,46.755-10.196,46.755-10.196L251.73,365.491z M242.347,366.783c-0.83,2.702-35.595-13.75-39.64-13.75
		c-4.045,0-5.984,12.457-5.822,17.31s1.939,8.09,11.321,5.66C217.594,373.58,242.347,366.783,242.347,366.783z"/>
</g>
<g>
	<path style="fill:#FFB1B0;" d="M193.866,379.023c2.541,2.758,6.401,4.251,11.756,3.616c17.633-2.106,46.755-10.196,46.755-10.196
		l-0.44-4.73l-10.641-0.646c-4.802,1.32-24.854,6.808-33.088,8.936c-4.49,1.164-7.243,1.025-8.903,0.033L193.866,379.023z"/>
	<path style="fill:#FFB1B0;" d="M251.73,365.491c0,0-39.556-23.043-53.29-17.522l4.362,5.07c4.418,0.217,38.721,16.43,39.545,13.744
		l9.633,1.426L251.73,365.491z"/>
</g>
<path style="fill:#FA7876;" d="M248.899,365.563c0,0,48.047-27.985,56.621-14.881c8.574,13.104,7.12,34.136-10.519,32.03
	c-17.633-2.1-46.755-10.19-46.755-10.19L248.899,365.563z M258.281,366.856c0.825,2.708,35.59-13.75,39.634-13.75
	s5.989,12.457,5.822,17.31c-0.156,4.853-1.939,8.09-11.321,5.666C283.035,373.653,258.281,366.856,258.281,366.856z"/>
<g>
	<path style="fill:#FFB1B0;" d="M306.763,379.101c-2.546,2.752-6.407,4.251-11.761,3.61c-17.633-2.1-46.755-10.19-46.755-10.19
		l0.446-4.73l10.636-0.646c4.802,1.315,24.859,6.808,33.088,8.936c4.496,1.159,7.243,1.025,8.909,0.033L306.763,379.101z"/>
	<path style="fill:#FFB1B0;" d="M248.899,365.563c0,0,39.551-23.037,53.29-17.522l-4.362,5.07
		c-4.424,0.217-38.726,16.435-39.545,13.745l-9.638,1.432L248.899,365.563z"/>
	<path style="fill:#FFB1B0;" d="M253.958,365.853c0.44-0.039-13.739,15.215-19.806,22.09s-4.775,14.157-4.775,14.157l-4.24-7.081
		l-4.496,3.198c0,0,0-8.73,9.059-16.664c9.059-7.934,17.5-18.58,17.5-18.58L253.958,365.853z"/>
</g>
<path style="fill:#FA7876;" d="M247,366.365c-0.44-0.045,12.53,13.895,18.592,20.77c6.067,6.875,4.78,14.157,4.78,14.157
	l4.635-8.168l4.095,4.284c0,0,0-8.73-9.059-16.664c-9.059-7.934-15.94-18.062-15.94-18.062L247,366.365z"/>
<g>
	<circle style="fill:#8DDDFC;" cx="205.443" cy="308.54" r="3.259"/>
	<circle style="fill:#8DDDFC;" cx="217.739" cy="317.811" r="3.259"/>
	<circle style="fill:#8DDDFC;" cx="237.963" cy="337.138" r="3.259"/>
	<circle style="fill:#8DDDFC;" cx="247.624" cy="354.264" r="3.259"/>
</g>
<g>
	<circle style="fill:#BACFFF;" cx="260.699" cy="335.093" r="3.259"/>
	<circle style="fill:#BACFFF;" cx="282.355" cy="313.911" r="3.259"/>
	<circle style="fill:#BACFFF;" cx="271.742" cy="330.787" r="3.259"/>
	<circle style="fill:#BACFFF;" cx="260.889" cy="349.612" r="3.259"/>
	<circle style="fill:#BACFFF;" cx="290.411" cy="304.836" r="3.259"/>
	<circle style="fill:#BACFFF;" cx="237.851" cy="400.807" r="3.259"/>
	<circle style="fill:#BACFFF;" cx="269.541" cy="411.187" r="3.259"/>
	<circle style="fill:#BACFFF;" cx="242.609" cy="421.878" r="3.259"/>
	<circle style="fill:#BACFFF;" cx="275.569" cy="425.611" r="3.259"/>
	<circle style="fill:#BACFFF;" cx="228.687" cy="416.853" r="3.259"/>
	<circle style="fill:#BACFFF;" cx="225.477" cy="435.561" r="3.259"/>
	<circle style="fill:#BACFFF;" cx="246.253" cy="438.748" r="3.259"/>
</g>
<circle style="fill:#8DDDFC;" cx="249.44" cy="386.539" r="3.259"/>
<circle style="fill:#BACFFF;" cx="264.861" cy="437.199" r="3.259"/>
<circle style="fill:#8DDDFC;" cx="229.879" cy="301.431" r="3.259"/>
<circle style="fill:#96A7FF;" cx="273.669" cy="292.027" r="3.259"/>
<g>
	<circle style="fill:#BACFFF;" cx="252.131" cy="404.262" r="3.259"/>
	<circle style="fill:#BACFFF;" cx="261.892" cy="424.134" r="3.259"/>
	<circle style="fill:#BACFFF;" cx="261.769" cy="392.952" r="3.259"/>
</g>
<g>
	<circle style="fill:#8DDDFC;" cx="272.004" cy="319.31" r="3.259"/>
	<circle style="fill:#8DDDFC;" cx="233.01" cy="348.008" r="3.259"/>
	<circle style="fill:#8DDDFC;" cx="223.093" cy="328.714" r="3.259"/>
</g>
<circle style="fill:#FAD55C;" cx="249.986" cy="369.129" r="8.764"/>
<circle style="fill:#FA7876;" cx="249.986" cy="369.129" r="4.663"/>
</svg>